<svg xmlns="http://www.w3.org/2000/svg" version="1.1" xmlns:xlink="http://www.w3.org/1999/xlink" xmlns:svgjs="http://svgjs.dev/svgjs" width="2000" height="1500" viewBox="0 0 2000 1500"><rect width="2000" height="1500" fill="#001f3f"></rect><g transform="matrix(0.4880429477794046,0,0,0.4880429477794046,511.4838914141172,248.38709677419354)"><svg viewBox="0 0 242 248" data-background-color="#001f3f" preserveAspectRatio="xMidYMid meet" height="2049" width="2000" xmlns="http://www.w3.org/2000/svg" xmlns:xlink="http://www.w3.org/1999/xlink"><g id="tight-bounds" transform="matrix(1,0,0,1,0.11731028558935463,0.4000000000000057)"><svg viewBox="0 0 241.7653794288213 247.2" height="247.2" width="241.7653794288213"><g><svg viewBox="0 0 397.4975999999999 406.43291008888787" height="247.2" width="241.7653794288213"><g></g><g transform="matrix(1,0,0,1,0.9887999999999693,299.5098874673573)"><svg viewBox="0 0 395.52 106.92302262153055" height="106.92302262153055" width="395.52"><g id="textblocktransform"><svg viewBox="0 0 395.52 106.92302262153055" height="106.92302262153055" width="395.52" id="textblock"><g><svg viewBox="0 0 395.52 106.92302262153055" height="106.92302262153055" width="395.52"><g transform="matrix(1,0,0,1,0,0)"><svg width="395.52" viewBox="2.65 -40.3 186.97166666666598 50.55" height="106.92302262153055" data-palette-color="url(#c645efc0-24c3-421e-83a1-b978b896e7e3)"></svg></g></svg></g></svg></g></svg></g><g transform="matrix(1,0,0,1,79.05703001700623,0)"><svg viewBox="0 0 239.38353996598747 239.38353996598747" height="239.38353996598747" width="239.38353996598747"><g><svg xmlns="http://www.w3.org/2000/svg" viewBox="2 2 60 60" x="0" y="0" height="239.38353996598747" width="239.38353996598747" class="icon-icon-0" data-fill-palette-color="accent" id="icon-0"></svg></g></svg></g><g></g></svg></g><defs></defs><mask id="bc198054-1d02-41f5-8dbb-e0499bd09861"><g id="SvgjsG1033"><svg viewBox="0 0 241.7653794288213 247.2" height="247.2" width="241.7653794288213"><g><svg viewBox="0 0 397.4975999999999 406.43291008888787" height="247.2" width="241.7653794288213"><g><rect width="397.4975999999999" height="9.64242852456897" x="0" y="264.6254994543879" fill="white" opacity="1" stroke-width="0" stroke="transparent" fill-opacity="1" class="rect-yte-0" rx="1%" id="SvgjsRect1032" data-palette-color="url(#c645efc0-24c3-421e-83a1-b978b896e7e3)"></rect></g><g transform="matrix(1,0,0,1,0.9887999999999693,299.5098874673573)"><svg viewBox="0 0 395.52 106.92302262153055" height="106.92302262153055" width="395.52"><g id="SvgjsG1031"><svg viewBox="0 0 395.52 106.92302262153055" height="106.92302262153055" width="395.52" id="SvgjsSvg1030"><g><svg viewBox="0 0 395.52 106.92302262153055" height="106.92302262153055" width="395.52"><g transform="matrix(1,0,0,1,0,0)"><svg width="395.52" viewBox="2.65 -40.3 186.97166666666598 50.55" height="106.92302262153055" data-palette-color="url(#c645efc0-24c3-421e-83a1-b978b896e7e3)"><path d="M9.3-3.13L9.3 0.35Q5.95 0.13 4.38-1.49 2.8-3.1 2.75-6.53L2.75-6.53Q2.7-10.2 2.68-13.51 2.65-16.82 2.65-20 2.65-23.18 2.68-26.48 2.7-29.78 2.75-33.45L2.75-33.45Q2.8-36.8 4.39-38.43 5.98-40.05 9.3-40.28L9.3-40.28 9.3-36.83Q7.93-36.63 7.34-35.9 6.75-35.18 6.7-33.58L6.7-33.58Q6.63-29.65 6.58-26.36 6.53-23.08 6.53-19.99 6.53-16.9 6.58-13.61 6.63-10.33 6.7-6.38L6.7-6.38Q6.75-4.8 7.34-4.06 7.93-3.33 9.3-3.13L9.3-3.13ZM11.98 0.33L11.98 0.33 11.98-3.15Q13.35-3.35 13.94-4.1 14.53-4.85 14.6-6.38L14.6-6.38Q14.65-7.53 14.65-8.64 14.65-9.75 14.63-11.14 14.6-12.53 14.55-14.43L14.55-14.43 18.53-14.43Q18.63-12.03 18.64-10.19 18.65-8.35 18.57-6.53L18.57-6.53Q18.43-3.15 16.88-1.54 15.33 0.08 11.98 0.33ZM18.32-26.1L14.38-26.1Q14.43-27.45 14.44-28.65 14.45-29.85 14.45-31.05 14.45-32.25 14.4-33.58L14.4-33.58Q14.35-35.08 13.79-35.81 13.23-36.55 11.98-36.8L11.98-36.8 11.98-40.23Q15.15-39.98 16.69-38.33 18.23-36.68 18.38-33.45L18.38-33.45Q18.43-32.15 18.44-30.96 18.45-29.78 18.43-28.6 18.4-27.43 18.32-26.1L18.32-26.1ZM27.72 0L23.65 0 23.65-30 27.72-30 27.72 0ZM30.37-26.53L30.37-26.53 30.37-29.58Q31.42-30.13 33.02-30.13L33.02-30.13Q33.5-30.13 33.96-30.09 34.42-30.05 34.9-29.98L34.9-29.98 34.9-26.9 33.07-26.9Q31.45-26.9 30.37-26.53ZM37.32-6.65L37.32-6.65Q37.24-8.18 37.21-10.26 37.17-12.35 37.17-14.65 37.17-16.95 37.21-19.21 37.24-21.48 37.32-23.33L37.32-23.33Q37.49-26.83 38.88-28.46 40.27-30.1 43.57-30.33L43.57-30.33 43.57-27.15Q42.34-26.93 41.83-26.21 41.32-25.5 41.27-24.13L41.27-24.13Q41.2-22.13 41.15-19.9 41.09-17.68 41.09-15.33 41.09-12.98 41.13-10.59 41.17-8.2 41.27-5.9L41.27-5.9Q41.32-4.53 41.84-3.79 42.37-3.05 43.57-2.83L43.57-2.83 43.57 0.33Q40.27 0.08 38.86-1.58 37.45-3.23 37.32-6.65ZM46.22 0.33L46.22 0.33 46.22-2.83Q47.42-3.08 47.92-3.8 48.42-4.53 48.47-5.83L48.47-5.83Q48.55-8.1 48.59-10.36 48.65-12.63 48.66-14.91 48.67-17.2 48.62-19.53 48.57-21.85 48.47-24.2L48.47-24.2Q48.42-25.55 47.91-26.25 47.4-26.95 46.22-27.18L46.22-27.18 46.22-30.33Q48.45-30.18 49.77-29.39 51.09-28.6 51.72-27.11 52.34-25.63 52.45-23.33L52.45-23.33Q52.52-21.63 52.56-19.53 52.59-17.43 52.59-15.19 52.59-12.95 52.56-10.75 52.52-8.55 52.45-6.65L52.45-6.65Q52.32-4.35 51.71-2.88 51.09-1.4 49.77-0.61 48.45 0.18 46.22 0.33ZM78.44 0L71.62 0 70.47-11.55 69.29-26.83 68.32-26.83 67.12-11.55 66.44-5.25 63.34-5.25 63.94-14.88 65.49-29.88 72.17-29.88 73.67-14.88 74.57-3.05 78.84-3.05 78.44 0ZM65.92 0L59.07 0 55.49-30 59.54-30 61.07-14.88 61.97-3.05 66.22-3.05 65.92 0ZM79.12-5.25L75.97-5.25 76.62-14.88 78.14-30 82.14-30 79.12-5.25ZM85.16-5.95L85.16-5.95Q85.09-8 85.06-10.36 85.04-12.73 85.05-15.14 85.06-17.55 85.09-19.85 85.11-22.15 85.16-24.05L85.16-24.05Q85.27-27.5 86.7-28.94 88.14-30.38 90.77-30.38L90.77-30.38Q91.77-30.38 92.52-30.18 93.27-29.98 93.86-29.55L93.86-29.55 93.86-27Q93.09-27.35 92.09-27.35L92.09-27.35Q90.56-27.35 89.91-26.66 89.27-25.98 89.22-24.43L89.22-24.43Q89.09-21.33 89.05-17.98 89.02-14.63 89.05-11.48 89.09-8.33 89.16-5.8L89.16-5.8Q89.22-4.05 89.91-3.36 90.61-2.68 92.06-2.68L92.06-2.68Q93.11-2.68 93.86-3L93.86-3 93.86-0.5Q93.24-0.08 92.47 0.15 91.69 0.38 90.66 0.38L90.66 0.38Q87.91 0.38 86.6-1.11 85.29-2.6 85.16-5.95ZM100.52 0L96.47 0 96.47-40 100.52-40 100.52 0ZM122.36-3.18L122.36 0.3Q119.08 0.05 117.58-1.56 116.08-3.18 115.98-6.58L115.98-6.58Q115.96-8 115.95-9.24 115.93-10.48 115.96-11.74 115.98-13 116.03-14.48L116.03-14.48 119.86-14.48Q119.76-12.25 119.75-10.21 119.73-8.18 119.86-6.08L119.86-6.08Q119.91-4.7 120.47-4.03 121.03-3.35 122.36-3.18L122.36-3.18ZM125.03 0.3L125.03 0.3 125.03-3.18Q126.26-3.38 126.78-4.04 127.31-4.7 127.41-6.08L127.41-6.08Q127.51-7.15 127.52-8.41 127.53-9.68 127.5-10.93 127.46-12.18 127.41-13.28L127.41-13.28Q127.36-15.28 126.61-16.28 125.86-17.28 124.16-17.7L124.16-17.7 121.38-18.38Q119.33-18.88 118.16-19.84 116.98-20.8 116.48-22.43 115.98-24.05 115.91-26.55L115.91-26.55Q115.88-28.18 115.9-29.94 115.91-31.7 115.93-33.5L115.93-33.5Q116.03-36.88 117.53-38.48 119.03-40.08 122.36-40.3L122.36-40.3 122.36-36.83Q121.08-36.65 120.52-35.99 119.96-35.33 119.91-33.95L119.91-33.95Q119.81-32.05 119.81-30.28 119.81-28.5 119.91-26.55L119.91-26.55Q119.96-24.4 120.51-23.39 121.06-22.38 122.41-22.05L122.41-22.05 125.03-21.45Q127.38-20.9 128.75-19.93 130.11-18.95 130.72-17.32 131.33-15.7 131.41-13.28L131.41-13.28Q131.46-12.23 131.46-11.06 131.46-9.9 131.44-8.75 131.41-7.6 131.38-6.58L131.38-6.58Q131.23-3.18 129.76-1.55 128.28 0.08 125.03 0.3ZM131.19-26.13L127.33-26.13Q127.41-28.43 127.42-30.3 127.43-32.18 127.36-33.95L127.36-33.95Q127.31-35.3 126.78-35.98 126.26-36.65 125.03-36.85L125.03-36.85 125.03-40.3Q128.21-40.05 129.66-38.45 131.11-36.85 131.23-33.45L131.23-33.45Q131.28-31.9 131.26-30.04 131.23-28.18 131.19-26.13L131.19-26.13ZM146.23 0L139.91 0 135.06-30 139.21-30 141.16-15.55 142.68-3.05 146.73-3.05 146.23 0ZM138.01 10.25L138.01 10.25Q137.31 10.25 136.36 10.15 135.41 10.05 134.63 9.95L134.63 9.95 134.63 6.88Q135.28 6.95 136.19 7.01 137.11 7.08 137.93 7.08L137.93 7.08Q139.83 7.08 140.59 6.5 141.36 5.93 141.61 4.38L141.61 4.38 141.88 2.5 145.88 2.5 145.61 4.33Q145.28 6.35 144.47 7.66 143.66 8.97 142.11 9.61 140.56 10.25 138.01 10.25ZM147.13-5.6L143.81-5.6 144.98-15.55 146.56-30 150.71-30 147.13-5.6ZM158.41 0L154.41 0 154.41-30 158.41-30 158.41 0ZM169.81 0L165.83 0 165.83-24.35Q165.81-25.95 165.1-26.65 164.41-27.35 162.88-27.35L162.88-27.35Q162.38-27.35 161.93-27.25 161.48-27.15 161.08-26.98L161.08-26.98 161.08-29.4Q161.7-29.88 162.5-30.13 163.31-30.38 164.33-30.38L164.33-30.38Q167.1-30.38 168.44-28.88 169.78-27.38 169.81-24.05L169.81-24.05 169.81 0ZM174.78-6.15L174.78-6.15Q174.73-7.95 174.69-10.19 174.65-12.43 174.65-14.83 174.65-17.23 174.68-19.54 174.7-21.85 174.78-23.8L174.78-23.8Q174.93-27 176.37-28.54 177.8-30.08 180.9-30.33L180.9-30.33 180.9-27.18Q179.8-26.95 179.31-26.29 178.83-25.63 178.8-24.3L178.8-24.3Q178.73-21.98 178.7-19.7 178.68-17.43 178.68-15.13 178.68-12.83 178.7-10.5 178.73-8.18 178.8-5.75L178.8-5.75Q178.83-4.42 179.33-3.75 179.83-3.08 180.9-2.88L180.9-2.88 180.9 0.33Q177.73 0.08 176.33-1.46 174.93-3 174.78-6.15ZM183.55 0.33L183.55 0.33 183.55-2.85Q184.65-3.05 185.13-3.73 185.6-4.4 185.63-5.78L185.63-5.78Q185.65-6.83 185.65-7.93 185.65-9.03 185.6-10.5L185.6-10.5 189.53-10.5Q189.6-9.6 189.62-8.31 189.63-7.03 189.58-6.15L189.58-6.15Q189.45-3 188.06-1.45 186.68 0.1 183.55 0.33ZM189.53-19.58L185.6-19.58Q185.65-20.4 185.65-21.23 185.65-22.05 185.65-22.85 185.65-23.65 185.63-24.33L185.63-24.33Q185.6-25.63 185.12-26.29 184.63-26.95 183.55-27.15L183.55-27.15 183.55-30.33Q186.68-30.1 188.1-28.58 189.53-27.05 189.58-23.93L189.58-23.93Q189.63-22.9 189.62-21.73 189.6-20.55 189.53-19.58L189.53-19.58Z" opacity="1" transform="matrix(1,0,0,1,0,0)" fill="white" class="wordmark-text-0" id="SvgjsPath1029"></path></svg></g></svg></g></svg></g></svg></g><g transform="matrix(1,0,0,1,79.05703001700623,0)"><svg viewBox="0 0 239.38353996598747 239.38353996598747" height="239.38353996598747" width="239.38353996598747"><g><svg xmlns="http://www.w3.org/2000/svg" viewBox="2 2 60 60" x="0" y="0" height="239.38353996598747" width="239.38353996598747" class="icon-icon-0" data-fill-palette-color="accent" id="SvgjsSvg1028"><g fill="black"><path d="M56 43A5 5 0 0 0 51.133 46.893 5.94 5.94 0 0 0 44.867 46.893 4.989 4.989 0 0 0 35.133 46.893 5.94 5.94 0 0 0 28.867 46.893 4.989 4.989 0 0 0 19.133 46.893 5.94 5.94 0 0 0 12.867 46.893 5 5 0 0 0 3 48 1 1 0 0 0 5 48 3 3 0 0 1 11 48 0.97 0.97 0 0 0 11.145 48.488 5.97 5.97 0 0 0 11.695 56.17 2.5 2.5 0 0 0 10.714 56.827 2.8 2.8 0 0 0 10 58.707V61A1 1 0 0 0 12 61V58.707A0.8 0.8 0 0 1 12.194 58.173 0.5 0.5 0 0 1 12.552 58H19.452A0.5 0.5 0 0 1 19.81 58.173 0.8 0.8 0 0 1 20.004 58.707V61A1 1 0 0 0 22.004 61V58.707A2.8 2.8 0 0 0 21.29 56.827 2.5 2.5 0 0 0 20.309 56.17 5.97 5.97 0 0 0 20.859 48.488 0.97 0.97 0 0 0 21 48 3 3 0 0 1 27 48 0.97 0.97 0 0 0 27.145 48.488 5.97 5.97 0 0 0 27.695 56.17 2.5 2.5 0 0 0 26.714 56.827 2.8 2.8 0 0 0 26 58.707V61A1 1 0 0 0 28 61V58.707A0.8 0.8 0 0 1 28.194 58.173 0.5 0.5 0 0 1 28.552 58H35.452A0.5 0.5 0 0 1 35.81 58.173 0.8 0.8 0 0 1 36.004 58.707V61A1 1 0 0 0 38.004 61V58.707A2.8 2.8 0 0 0 37.29 56.827 2.5 2.5 0 0 0 36.309 56.17 5.97 5.97 0 0 0 36.859 48.488 0.97 0.97 0 0 0 37 48 3 3 0 0 1 43 48 0.97 0.97 0 0 0 43.145 48.488 5.97 5.97 0 0 0 43.695 56.17 2.5 2.5 0 0 0 42.714 56.827 2.8 2.8 0 0 0 42 58.707V61A1 1 0 0 0 44 61V58.707A0.8 0.8 0 0 1 44.194 58.173 0.5 0.5 0 0 1 44.552 58H51.452A0.5 0.5 0 0 1 51.81 58.173 0.8 0.8 0 0 1 52.004 58.707V61A1 1 0 0 0 54.004 61V58.707A2.8 2.8 0 0 0 53.29 56.827 2.5 2.5 0 0 0 52.309 56.17 5.97 5.97 0 0 0 52.859 48.488 0.97 0.97 0 0 0 53 48 3 3 0 0 1 59 48 1 1 0 0 0 61 48 5.006 5.006 0 0 0 56 43M16 48A4 4 0 1 1 12 52 4 4 0 0 1 16 48M32 48A4 4 0 1 1 28 52 4 4 0 0 1 32 48M48 48A4 4 0 1 1 44 52 4 4 0 0 1 48 48" fill="black"></path><path d="M13 41A3 3 0 0 1 19 41 1 1 0 0 0 21 41 5 5 0 0 0 11 41 1 1 0 0 0 13 41" fill="black"></path><path d="M29 41A3 3 0 0 1 35 41 1 1 0 0 0 37 41 5 5 0 0 0 27 41 1 1 0 0 0 29 41" fill="black"></path><path d="M45 41A3 3 0 0 1 51 41 1 1 0 0 0 53 41 5 5 0 0 0 43 41 1 1 0 0 0 45 41" fill="black"></path><path d="M62 3A1 1 0 0 0 61 2H3A1 1 0 0 0 3 4H4.586L7.586 7H3A1 1 0 0 0 3 9H4V12.5A3.974 3.974 0 0 0 4.1 18.032L6.05 19.982A1 1 0 0 0 7.464 19.982L11.706 15.739A1 1 0 0 0 11.706 14.325L9.756 12.376A3.92 3.92 0 0 0 6 11.327V9H31V11.417A3.85 3.85 0 0 0 29.172 12.417 4.02 4.02 0 0 0 28 15.242V18A1 1 0 0 0 29 19H35A1 1 0 0 0 36 18V15.242A4.02 4.02 0 0 0 34.828 12.414 3.85 3.85 0 0 0 33 11.414V9H58V11.327A3.92 3.92 0 0 0 54.243 12.379L52.293 14.328A1 1 0 0 0 52.293 15.742L56.535 19.985A1 1 0 0 0 57.949 19.985L59.899 18.035A3.974 3.974 0 0 0 60 12.5V9H61A1 1 0 0 0 61 7H60.345A1 1 0 0 0 60.207 6.793L57.414 4H61A1 1 0 0 0 62 3M8.343 13.793L9.586 15.035 6.758 17.864 5.515 16.621A2 2 0 1 1 8.343 13.793M34 15.242V17H30V15.242A2 2 0 0 1 34 15.242M58.485 16.621L57.242 17.864 54.414 15.035 55.657 13.793A2 2 0 1 1 58.485 16.621M25 4.414L27.586 7H22.414ZM20 6.586L17.414 4H22.586ZM27.414 4H32.586L30 6.586ZM35 4.414L37.586 7H32.414ZM40 6.586L37.414 4H42.586ZM45 4.414L47.586 7H42.414ZM12.586 4L10 6.586 7.414 4ZM15 4.414L17.586 7H12.414ZM52.414 7L55 4.414 57.586 7ZM50 6.586L47.414 4H52.586Z" fill="black"></path><path d="M61 32H3A1 1 0 0 0 3 34H61A1 1 0 0 0 61 32" fill="black"></path></g></svg></g></svg></g><g></g></svg></g><defs><mask></mask></defs></svg><rect width="241.7653794288213" height="247.2" fill="black" stroke="none" visibility="hidden"></rect></g></mask><linearGradient x1="0" x2="1" y1="0.5" y2="0.5" id="c645efc0-24c3-421e-83a1-b978b896e7e3"><stop stop-color="#ffa62e" offset="0"></stop><stop stop-color="#f71b3d" offset="1"></stop></linearGradient><rect width="241.7653794288213" height="247.2" fill="url(#c645efc0-24c3-421e-83a1-b978b896e7e3)" mask="url(#bc198054-1d02-41f5-8dbb-e0499bd09861)" data-fill-palette-color="primary"></rect><mask id="7fb52ca7-203e-4df5-95e1-d99e94638db0"><g id="SvgjsG1043"><svg viewBox="0 0 241.7653794288213 247.2" height="247.2" width="241.7653794288213"><g><svg viewBox="0 0 397.4975999999999 406.43291008888787" height="247.2" width="241.7653794288213"><g></g><g transform="matrix(1,0,0,1,0.9887999999999693,299.5098874673573)"><svg viewBox="0 0 395.52 106.92302262153055" height="106.92302262153055" width="395.52"><g id="SvgjsG1042"><svg viewBox="0 0 395.52 106.92302262153055" height="106.92302262153055" width="395.52" id="SvgjsSvg1041"><g><svg viewBox="0 0 395.52 106.92302262153055" height="106.92302262153055" width="395.52"><g transform="matrix(1,0,0,1,0,0)"><svg width="395.52" viewBox="2.65 -40.3 186.97166666666598 50.55" height="106.92302262153055" data-palette-color="url(#c645efc0-24c3-421e-83a1-b978b896e7e3)"></svg></g></svg></g></svg></g></svg></g><g transform="matrix(1,0,0,1,79.05703001700623,0)"><svg viewBox="0 0 239.38353996598747 239.38353996598747" height="239.38353996598747" width="239.38353996598747"><g><svg xmlns="http://www.w3.org/2000/svg" viewBox="2 2 60 60" x="0" y="0" height="239.38353996598747" width="239.38353996598747" class="icon-icon-0" data-fill-palette-color="accent" id="SvgjsSvg1040"><g fill="white"><path d="M56 43A5 5 0 0 0 51.133 46.893 5.94 5.94 0 0 0 44.867 46.893 4.989 4.989 0 0 0 35.133 46.893 5.94 5.94 0 0 0 28.867 46.893 4.989 4.989 0 0 0 19.133 46.893 5.94 5.94 0 0 0 12.867 46.893 5 5 0 0 0 3 48 1 1 0 0 0 5 48 3 3 0 0 1 11 48 0.97 0.97 0 0 0 11.145 48.488 5.97 5.97 0 0 0 11.695 56.17 2.5 2.5 0 0 0 10.714 56.827 2.8 2.8 0 0 0 10 58.707V61A1 1 0 0 0 12 61V58.707A0.8 0.8 0 0 1 12.194 58.173 0.5 0.5 0 0 1 12.552 58H19.452A0.5 0.5 0 0 1 19.81 58.173 0.8 0.8 0 0 1 20.004 58.707V61A1 1 0 0 0 22.004 61V58.707A2.8 2.8 0 0 0 21.29 56.827 2.5 2.5 0 0 0 20.309 56.17 5.97 5.97 0 0 0 20.859 48.488 0.97 0.97 0 0 0 21 48 3 3 0 0 1 27 48 0.97 0.97 0 0 0 27.145 48.488 5.97 5.97 0 0 0 27.695 56.17 2.5 2.5 0 0 0 26.714 56.827 2.8 2.8 0 0 0 26 58.707V61A1 1 0 0 0 28 61V58.707A0.8 0.8 0 0 1 28.194 58.173 0.5 0.5 0 0 1 28.552 58H35.452A0.5 0.5 0 0 1 35.81 58.173 0.8 0.8 0 0 1 36.004 58.707V61A1 1 0 0 0 38.004 61V58.707A2.8 2.8 0 0 0 37.29 56.827 2.5 2.5 0 0 0 36.309 56.17 5.97 5.97 0 0 0 36.859 48.488 0.97 0.97 0 0 0 37 48 3 3 0 0 1 43 48 0.97 0.97 0 0 0 43.145 48.488 5.97 5.97 0 0 0 43.695 56.17 2.5 2.5 0 0 0 42.714 56.827 2.8 2.8 0 0 0 42 58.707V61A1 1 0 0 0 44 61V58.707A0.8 0.8 0 0 1 44.194 58.173 0.5 0.5 0 0 1 44.552 58H51.452A0.5 0.5 0 0 1 51.81 58.173 0.8 0.8 0 0 1 52.004 58.707V61A1 1 0 0 0 54.004 61V58.707A2.8 2.8 0 0 0 53.29 56.827 2.5 2.5 0 0 0 52.309 56.17 5.97 5.97 0 0 0 52.859 48.488 0.97 0.97 0 0 0 53 48 3 3 0 0 1 59 48 1 1 0 0 0 61 48 5.006 5.006 0 0 0 56 43M16 48A4 4 0 1 1 12 52 4 4 0 0 1 16 48M32 48A4 4 0 1 1 28 52 4 4 0 0 1 32 48M48 48A4 4 0 1 1 44 52 4 4 0 0 1 48 48" fill="white"></path><path d="M13 41A3 3 0 0 1 19 41 1 1 0 0 0 21 41 5 5 0 0 0 11 41 1 1 0 0 0 13 41" fill="white"></path><path d="M29 41A3 3 0 0 1 35 41 1 1 0 0 0 37 41 5 5 0 0 0 27 41 1 1 0 0 0 29 41" fill="white"></path><path d="M45 41A3 3 0 0 1 51 41 1 1 0 0 0 53 41 5 5 0 0 0 43 41 1 1 0 0 0 45 41" fill="white"></path><path d="M62 3A1 1 0 0 0 61 2H3A1 1 0 0 0 3 4H4.586L7.586 7H3A1 1 0 0 0 3 9H4V12.5A3.974 3.974 0 0 0 4.1 18.032L6.05 19.982A1 1 0 0 0 7.464 19.982L11.706 15.739A1 1 0 0 0 11.706 14.325L9.756 12.376A3.92 3.92 0 0 0 6 11.327V9H31V11.417A3.85 3.85 0 0 0 29.172 12.417 4.02 4.02 0 0 0 28 15.242V18A1 1 0 0 0 29 19H35A1 1 0 0 0 36 18V15.242A4.02 4.02 0 0 0 34.828 12.414 3.85 3.85 0 0 0 33 11.414V9H58V11.327A3.92 3.92 0 0 0 54.243 12.379L52.293 14.328A1 1 0 0 0 52.293 15.742L56.535 19.985A1 1 0 0 0 57.949 19.985L59.899 18.035A3.974 3.974 0 0 0 60 12.5V9H61A1 1 0 0 0 61 7H60.345A1 1 0 0 0 60.207 6.793L57.414 4H61A1 1 0 0 0 62 3M8.343 13.793L9.586 15.035 6.758 17.864 5.515 16.621A2 2 0 1 1 8.343 13.793M34 15.242V17H30V15.242A2 2 0 0 1 34 15.242M58.485 16.621L57.242 17.864 54.414 15.035 55.657 13.793A2 2 0 1 1 58.485 16.621M25 4.414L27.586 7H22.414ZM20 6.586L17.414 4H22.586ZM27.414 4H32.586L30 6.586ZM35 4.414L37.586 7H32.414ZM40 6.586L37.414 4H42.586ZM45 4.414L47.586 7H42.414ZM12.586 4L10 6.586 7.414 4ZM15 4.414L17.586 7H12.414ZM52.414 7L55 4.414 57.586 7ZM50 6.586L47.414 4H52.586Z" fill="white"></path><path d="M61 32H3A1 1 0 0 0 3 34H61A1 1 0 0 0 61 32" fill="white"></path></g></svg></g></svg></g><g></g></svg></g><defs><mask></mask></defs><mask><g id="SvgjsG1039"><svg viewBox="0 0 241.7653794288213 247.2" height="247.2" width="241.7653794288213"><g><svg viewBox="0 0 397.4975999999999 406.43291008888787" height="247.2" width="241.7653794288213"><g><rect width="397.4975999999999" height="9.64242852456897" x="0" y="264.6254994543879" fill="black" opacity="1" stroke-width="0" stroke="transparent" fill-opacity="1" class="rect-yte-0" rx="1%" id="SvgjsRect1038" data-palette-color="url(#c645efc0-24c3-421e-83a1-b978b896e7e3)"></rect></g><g transform="matrix(1,0,0,1,0.9887999999999693,299.5098874673573)"><svg viewBox="0 0 395.52 106.92302262153055" height="106.92302262153055" width="395.52"><g id="SvgjsG1037"><svg viewBox="0 0 395.52 106.92302262153055" height="106.92302262153055" width="395.52" id="SvgjsSvg1036"><g><svg viewBox="0 0 395.52 106.92302262153055" height="106.92302262153055" width="395.52"><g transform="matrix(1,0,0,1,0,0)"><svg width="395.52" viewBox="2.65 -40.3 186.97166666666598 50.55" height="106.92302262153055" data-palette-color="url(#c645efc0-24c3-421e-83a1-b978b896e7e3)"><path d="M9.3-3.13L9.3 0.35Q5.95 0.13 4.38-1.49 2.8-3.1 2.75-6.53L2.75-6.53Q2.7-10.2 2.68-13.51 2.65-16.82 2.65-20 2.65-23.18 2.68-26.48 2.7-29.78 2.75-33.45L2.75-33.45Q2.8-36.8 4.39-38.43 5.98-40.05 9.3-40.28L9.3-40.28 9.3-36.83Q7.93-36.63 7.34-35.9 6.75-35.18 6.7-33.58L6.7-33.58Q6.63-29.65 6.58-26.36 6.53-23.08 6.53-19.99 6.53-16.9 6.58-13.61 6.63-10.33 6.7-6.38L6.7-6.38Q6.75-4.8 7.34-4.06 7.93-3.33 9.3-3.13L9.3-3.13ZM11.98 0.33L11.98 0.33 11.98-3.15Q13.35-3.35 13.94-4.1 14.53-4.85 14.6-6.38L14.6-6.38Q14.65-7.53 14.65-8.64 14.65-9.75 14.63-11.14 14.6-12.53 14.55-14.43L14.55-14.43 18.53-14.43Q18.63-12.03 18.64-10.19 18.65-8.35 18.57-6.53L18.57-6.53Q18.43-3.15 16.88-1.54 15.33 0.08 11.98 0.33ZM18.32-26.1L14.38-26.1Q14.43-27.45 14.44-28.65 14.45-29.85 14.45-31.05 14.45-32.25 14.4-33.58L14.4-33.58Q14.35-35.08 13.79-35.81 13.23-36.55 11.98-36.8L11.98-36.8 11.98-40.23Q15.15-39.98 16.69-38.33 18.23-36.68 18.38-33.45L18.38-33.45Q18.43-32.15 18.44-30.96 18.45-29.78 18.43-28.6 18.4-27.43 18.32-26.1L18.32-26.1ZM27.72 0L23.65 0 23.65-30 27.72-30 27.72 0ZM30.37-26.53L30.37-26.53 30.37-29.58Q31.42-30.13 33.02-30.13L33.02-30.13Q33.5-30.13 33.96-30.09 34.42-30.05 34.9-29.98L34.9-29.98 34.9-26.9 33.07-26.9Q31.45-26.9 30.37-26.53ZM37.32-6.65L37.32-6.65Q37.24-8.18 37.21-10.26 37.17-12.35 37.17-14.65 37.17-16.95 37.21-19.21 37.24-21.48 37.32-23.33L37.32-23.33Q37.49-26.83 38.88-28.46 40.27-30.1 43.57-30.33L43.57-30.33 43.57-27.15Q42.34-26.93 41.83-26.21 41.32-25.5 41.27-24.13L41.27-24.13Q41.2-22.13 41.15-19.9 41.09-17.68 41.09-15.33 41.09-12.98 41.13-10.59 41.17-8.2 41.27-5.9L41.27-5.9Q41.32-4.53 41.84-3.79 42.37-3.05 43.57-2.83L43.57-2.83 43.57 0.33Q40.27 0.08 38.86-1.58 37.45-3.23 37.32-6.65ZM46.22 0.33L46.22 0.33 46.22-2.83Q47.42-3.08 47.92-3.8 48.42-4.53 48.47-5.83L48.47-5.83Q48.55-8.1 48.59-10.36 48.65-12.63 48.66-14.91 48.67-17.2 48.62-19.53 48.57-21.85 48.47-24.2L48.47-24.2Q48.42-25.55 47.91-26.25 47.4-26.95 46.22-27.18L46.22-27.18 46.22-30.33Q48.45-30.18 49.77-29.39 51.09-28.6 51.72-27.11 52.34-25.63 52.45-23.33L52.45-23.33Q52.52-21.63 52.56-19.53 52.59-17.43 52.59-15.19 52.59-12.95 52.56-10.75 52.52-8.55 52.45-6.65L52.45-6.65Q52.32-4.35 51.71-2.88 51.09-1.4 49.77-0.61 48.45 0.18 46.22 0.33ZM78.44 0L71.62 0 70.47-11.55 69.29-26.83 68.32-26.83 67.12-11.55 66.44-5.25 63.34-5.25 63.94-14.88 65.49-29.88 72.17-29.88 73.67-14.88 74.57-3.05 78.84-3.05 78.44 0ZM65.92 0L59.07 0 55.49-30 59.54-30 61.07-14.88 61.97-3.05 66.22-3.05 65.92 0ZM79.12-5.25L75.97-5.25 76.62-14.88 78.14-30 82.14-30 79.12-5.25ZM85.16-5.95L85.16-5.95Q85.09-8 85.06-10.36 85.04-12.73 85.05-15.14 85.06-17.55 85.09-19.85 85.11-22.15 85.16-24.05L85.16-24.05Q85.27-27.5 86.7-28.94 88.14-30.38 90.77-30.38L90.77-30.38Q91.77-30.38 92.52-30.18 93.27-29.98 93.86-29.55L93.86-29.55 93.86-27Q93.09-27.35 92.09-27.35L92.09-27.35Q90.56-27.35 89.91-26.66 89.27-25.98 89.22-24.43L89.22-24.43Q89.09-21.33 89.05-17.98 89.02-14.63 89.05-11.48 89.09-8.33 89.16-5.8L89.16-5.8Q89.22-4.05 89.91-3.36 90.61-2.68 92.06-2.68L92.06-2.68Q93.11-2.68 93.86-3L93.86-3 93.86-0.5Q93.24-0.08 92.47 0.15 91.69 0.38 90.66 0.38L90.66 0.38Q87.91 0.38 86.6-1.11 85.29-2.6 85.16-5.95ZM100.52 0L96.47 0 96.47-40 100.52-40 100.52 0ZM122.36-3.18L122.36 0.3Q119.08 0.05 117.58-1.56 116.08-3.18 115.98-6.58L115.98-6.58Q115.96-8 115.95-9.24 115.93-10.48 115.96-11.74 115.98-13 116.03-14.48L116.03-14.48 119.86-14.48Q119.76-12.25 119.75-10.21 119.73-8.18 119.86-6.08L119.86-6.08Q119.91-4.7 120.47-4.03 121.03-3.35 122.36-3.18L122.36-3.18ZM125.03 0.3L125.03 0.3 125.03-3.18Q126.26-3.38 126.78-4.04 127.31-4.7 127.41-6.08L127.41-6.08Q127.51-7.15 127.52-8.41 127.53-9.68 127.5-10.93 127.46-12.18 127.41-13.28L127.41-13.28Q127.36-15.28 126.61-16.28 125.86-17.28 124.16-17.7L124.16-17.7 121.38-18.38Q119.33-18.88 118.16-19.84 116.98-20.8 116.48-22.43 115.98-24.05 115.91-26.55L115.91-26.55Q115.88-28.18 115.9-29.94 115.91-31.7 115.93-33.5L115.93-33.5Q116.03-36.88 117.53-38.48 119.03-40.08 122.36-40.3L122.36-40.3 122.36-36.83Q121.08-36.65 120.52-35.99 119.96-35.33 119.91-33.95L119.91-33.95Q119.81-32.05 119.81-30.28 119.81-28.5 119.91-26.55L119.91-26.55Q119.96-24.4 120.51-23.39 121.06-22.38 122.41-22.05L122.41-22.05 125.03-21.45Q127.38-20.9 128.75-19.93 130.11-18.95 130.72-17.32 131.33-15.7 131.41-13.28L131.41-13.28Q131.46-12.23 131.46-11.06 131.46-9.9 131.44-8.75 131.41-7.6 131.38-6.58L131.38-6.58Q131.23-3.18 129.76-1.55 128.28 0.08 125.03 0.3ZM131.19-26.13L127.33-26.13Q127.41-28.43 127.42-30.3 127.43-32.18 127.36-33.95L127.36-33.95Q127.31-35.3 126.78-35.98 126.26-36.65 125.03-36.85L125.03-36.85 125.03-40.3Q128.21-40.05 129.66-38.45 131.11-36.85 131.23-33.45L131.23-33.45Q131.28-31.9 131.26-30.04 131.23-28.18 131.19-26.13L131.19-26.13ZM146.23 0L139.91 0 135.06-30 139.21-30 141.16-15.55 142.68-3.05 146.73-3.05 146.23 0ZM138.01 10.25L138.01 10.25Q137.31 10.25 136.36 10.15 135.41 10.05 134.63 9.95L134.63 9.95 134.63 6.88Q135.28 6.95 136.19 7.01 137.11 7.08 137.93 7.08L137.93 7.08Q139.83 7.08 140.59 6.5 141.36 5.93 141.61 4.38L141.61 4.38 141.88 2.5 145.88 2.5 145.61 4.33Q145.28 6.35 144.47 7.66 143.66 8.97 142.11 9.61 140.56 10.25 138.01 10.25ZM147.13-5.6L143.81-5.6 144.98-15.55 146.56-30 150.71-30 147.13-5.6ZM158.41 0L154.41 0 154.41-30 158.41-30 158.41 0ZM169.81 0L165.83 0 165.83-24.35Q165.81-25.95 165.1-26.65 164.41-27.35 162.88-27.35L162.88-27.35Q162.38-27.35 161.93-27.25 161.48-27.15 161.08-26.98L161.08-26.98 161.08-29.4Q161.7-29.88 162.5-30.13 163.31-30.38 164.33-30.38L164.33-30.38Q167.1-30.38 168.44-28.88 169.78-27.38 169.81-24.05L169.81-24.05 169.81 0ZM174.78-6.15L174.78-6.15Q174.73-7.95 174.69-10.19 174.65-12.43 174.65-14.83 174.65-17.23 174.68-19.54 174.7-21.85 174.78-23.8L174.78-23.8Q174.93-27 176.37-28.54 177.8-30.08 180.9-30.33L180.9-30.33 180.9-27.18Q179.8-26.95 179.31-26.29 178.83-25.63 178.8-24.3L178.8-24.3Q178.73-21.98 178.7-19.7 178.68-17.43 178.68-15.13 178.68-12.83 178.7-10.5 178.73-8.18 178.8-5.75L178.8-5.75Q178.83-4.42 179.33-3.75 179.83-3.08 180.9-2.88L180.9-2.88 180.9 0.33Q177.73 0.08 176.33-1.46 174.93-3 174.78-6.15ZM183.55 0.33L183.55 0.33 183.55-2.85Q184.65-3.05 185.13-3.73 185.6-4.4 185.63-5.78L185.63-5.78Q185.65-6.83 185.65-7.93 185.65-9.03 185.6-10.5L185.6-10.5 189.53-10.5Q189.6-9.6 189.62-8.31 189.63-7.03 189.58-6.15L189.58-6.15Q189.45-3 188.06-1.45 186.68 0.1 183.55 0.33ZM189.53-19.58L185.6-19.58Q185.65-20.4 185.65-21.23 185.65-22.05 185.65-22.85 185.65-23.65 185.63-24.33L185.63-24.33Q185.6-25.63 185.12-26.29 184.63-26.95 183.55-27.15L183.55-27.15 183.55-30.33Q186.68-30.1 188.1-28.58 189.53-27.05 189.58-23.93L189.58-23.93Q189.63-22.9 189.62-21.73 189.6-20.55 189.53-19.58L189.53-19.58Z" opacity="1" transform="matrix(1,0,0,1,0,0)" fill="black" class="wordmark-text-0" id="SvgjsPath1035"></path></svg></g></svg></g></svg></g></svg></g><g transform="matrix(1,0,0,1,79.05703001700623,0)"><svg viewBox="0 0 239.38353996598747 239.38353996598747" height="239.38353996598747" width="239.38353996598747"><g><svg xmlns="http://www.w3.org/2000/svg" viewBox="2 2 60 60" x="0" y="0" height="239.38353996598747" width="239.38353996598747" class="icon-icon-0" data-fill-palette-color="accent" id="SvgjsSvg1034"><g fill="black"><path d="M56 43A5 5 0 0 0 51.133 46.893 5.94 5.94 0 0 0 44.867 46.893 4.989 4.989 0 0 0 35.133 46.893 5.94 5.94 0 0 0 28.867 46.893 4.989 4.989 0 0 0 19.133 46.893 5.94 5.94 0 0 0 12.867 46.893 5 5 0 0 0 3 48 1 1 0 0 0 5 48 3 3 0 0 1 11 48 0.97 0.97 0 0 0 11.145 48.488 5.97 5.97 0 0 0 11.695 56.17 2.5 2.5 0 0 0 10.714 56.827 2.8 2.8 0 0 0 10 58.707V61A1 1 0 0 0 12 61V58.707A0.8 0.8 0 0 1 12.194 58.173 0.5 0.5 0 0 1 12.552 58H19.452A0.5 0.5 0 0 1 19.81 58.173 0.8 0.8 0 0 1 20.004 58.707V61A1 1 0 0 0 22.004 61V58.707A2.8 2.8 0 0 0 21.29 56.827 2.5 2.5 0 0 0 20.309 56.17 5.97 5.97 0 0 0 20.859 48.488 0.97 0.97 0 0 0 21 48 3 3 0 0 1 27 48 0.97 0.97 0 0 0 27.145 48.488 5.97 5.97 0 0 0 27.695 56.17 2.5 2.5 0 0 0 26.714 56.827 2.8 2.8 0 0 0 26 58.707V61A1 1 0 0 0 28 61V58.707A0.8 0.8 0 0 1 28.194 58.173 0.5 0.5 0 0 1 28.552 58H35.452A0.5 0.5 0 0 1 35.81 58.173 0.8 0.8 0 0 1 36.004 58.707V61A1 1 0 0 0 38.004 61V58.707A2.8 2.8 0 0 0 37.29 56.827 2.5 2.5 0 0 0 36.309 56.17 5.97 5.97 0 0 0 36.859 48.488 0.97 0.97 0 0 0 37 48 3 3 0 0 1 43 48 0.97 0.97 0 0 0 43.145 48.488 5.97 5.97 0 0 0 43.695 56.17 2.5 2.5 0 0 0 42.714 56.827 2.8 2.8 0 0 0 42 58.707V61A1 1 0 0 0 44 61V58.707A0.8 0.8 0 0 1 44.194 58.173 0.5 0.5 0 0 1 44.552 58H51.452A0.5 0.5 0 0 1 51.81 58.173 0.8 0.8 0 0 1 52.004 58.707V61A1 1 0 0 0 54.004 61V58.707A2.8 2.8 0 0 0 53.29 56.827 2.5 2.5 0 0 0 52.309 56.17 5.97 5.97 0 0 0 52.859 48.488 0.97 0.97 0 0 0 53 48 3 3 0 0 1 59 48 1 1 0 0 0 61 48 5.006 5.006 0 0 0 56 43M16 48A4 4 0 1 1 12 52 4 4 0 0 1 16 48M32 48A4 4 0 1 1 28 52 4 4 0 0 1 32 48M48 48A4 4 0 1 1 44 52 4 4 0 0 1 48 48" fill="black"></path><path d="M13 41A3 3 0 0 1 19 41 1 1 0 0 0 21 41 5 5 0 0 0 11 41 1 1 0 0 0 13 41" fill="black"></path><path d="M29 41A3 3 0 0 1 35 41 1 1 0 0 0 37 41 5 5 0 0 0 27 41 1 1 0 0 0 29 41" fill="black"></path><path d="M45 41A3 3 0 0 1 51 41 1 1 0 0 0 53 41 5 5 0 0 0 43 41 1 1 0 0 0 45 41" fill="black"></path><path d="M62 3A1 1 0 0 0 61 2H3A1 1 0 0 0 3 4H4.586L7.586 7H3A1 1 0 0 0 3 9H4V12.5A3.974 3.974 0 0 0 4.1 18.032L6.05 19.982A1 1 0 0 0 7.464 19.982L11.706 15.739A1 1 0 0 0 11.706 14.325L9.756 12.376A3.92 3.92 0 0 0 6 11.327V9H31V11.417A3.85 3.85 0 0 0 29.172 12.417 4.02 4.02 0 0 0 28 15.242V18A1 1 0 0 0 29 19H35A1 1 0 0 0 36 18V15.242A4.02 4.02 0 0 0 34.828 12.414 3.85 3.85 0 0 0 33 11.414V9H58V11.327A3.92 3.92 0 0 0 54.243 12.379L52.293 14.328A1 1 0 0 0 52.293 15.742L56.535 19.985A1 1 0 0 0 57.949 19.985L59.899 18.035A3.974 3.974 0 0 0 60 12.5V9H61A1 1 0 0 0 61 7H60.345A1 1 0 0 0 60.207 6.793L57.414 4H61A1 1 0 0 0 62 3M8.343 13.793L9.586 15.035 6.758 17.864 5.515 16.621A2 2 0 1 1 8.343 13.793M34 15.242V17H30V15.242A2 2 0 0 1 34 15.242M58.485 16.621L57.242 17.864 54.414 15.035 55.657 13.793A2 2 0 1 1 58.485 16.621M25 4.414L27.586 7H22.414ZM20 6.586L17.414 4H22.586ZM27.414 4H32.586L30 6.586ZM35 4.414L37.586 7H32.414ZM40 6.586L37.414 4H42.586ZM45 4.414L47.586 7H42.414ZM12.586 4L10 6.586 7.414 4ZM15 4.414L17.586 7H12.414ZM52.414 7L55 4.414 57.586 7ZM50 6.586L47.414 4H52.586Z" fill="black"></path><path d="M61 32H3A1 1 0 0 0 3 34H61A1 1 0 0 0 61 32" fill="black"></path></g></svg></g></svg></g><g></g></svg></g><defs><mask></mask></defs></svg><rect width="241.7653794288213" height="247.2" fill="black" stroke="none" visibility="hidden"></rect></g></mask></svg><rect width="241.7653794288213" height="247.2" fill="black" stroke="none" visibility="hidden"></rect></g></mask><linearGradient x1="0" x2="1" y1="0.5" y2="0.5" id="74fa9e30-b46d-4dea-96f6-cabb1f77c93b"><stop stop-color="#ffa62e" offset="0"></stop><stop stop-color="#f71b3d" offset="1"></stop></linearGradient><rect width="241.7653794288213" height="247.2" fill="url(#74fa9e30-b46d-4dea-96f6-cabb1f77c93b)" mask="url(#7fb52ca7-203e-4df5-95e1-d99e94638db0)" data-fill-palette-color="accent"></rect></svg><rect width="241.7653794288213" height="247.2" fill="none" stroke="none" visibility="hidden"></rect></g></svg></g></svg>