<svg xmlns="http://www.w3.org/2000/svg" version="1.1" xmlns:xlink="http://www.w3.org/1999/xlink" xmlns:svgjs="http://svgjs.dev/svgjs" width="128" height="128" viewBox="0 0 128 128"><g transform="matrix(0.8046875,0,0,0.8046875,12.221578124999994,12.221578124999994)"><svg viewBox="0 0 96 96" data-background-color="#001f3f" preserveAspectRatio="xMidYMid meet" height="128" width="128" xmlns="http://www.w3.org/2000/svg" xmlns:xlink="http://www.w3.org/1999/xlink"><g id="tight-bounds" transform="matrix(1,0,0,1,0.25950000000000273,0.25950000000000273)"><svg viewBox="0 0 95.481 95.481" height="95.481" width="95.481"><g><svg viewBox="0 0 95.481 95.481" height="95.481" width="95.481"><g><svg viewBox="0 0 95.481 95.481" height="95.481" width="95.481"><g id="textblocktransform"><svg viewBox="0 0 95.481 95.481" height="95.481" width="95.481" id="textblock"><g><svg viewBox="0 0 95.481 95.481" height="95.481" width="95.481"><g><svg viewBox="0 0 95.481 95.481" height="95.481" width="95.481"><g><svg xmlns="http://www.w3.org/2000/svg" viewBox="2 2 60 60" x="0" y="0" height="95.481" width="95.481" class="icon-icon-0" data-fill-palette-color="accent" id="icon-0"></svg></g></svg></g></svg></g></svg></g></svg></g><g></g></svg></g><defs></defs><mask id="09b64ea5-9584-46c8-aee5-0987116112f0"><g id="SvgjsG1539"><svg viewBox="0 0 95.481 95.481" height="95.481" width="95.481"><g><svg viewBox="0 0 95.481 95.481" height="95.481" width="95.481"><g><svg viewBox="0 0 95.481 95.481" height="95.481" width="95.481"><g id="SvgjsG1538"><svg viewBox="0 0 95.481 95.481" height="95.481" width="95.481" id="SvgjsSvg1537"><g><svg viewBox="0 0 95.481 95.481" height="95.481" width="95.481"><g><svg viewBox="0 0 95.481 95.481" height="95.481" width="95.481"><g><svg xmlns="http://www.w3.org/2000/svg" viewBox="2 2 60 60" x="0" y="0" height="95.481" width="95.481" class="icon-icon-0" data-fill-palette-color="accent" id="SvgjsSvg1536"><g fill="white"><path d="M56 43A5 5 0 0 0 51.133 46.893 5.94 5.94 0 0 0 44.867 46.893 4.989 4.989 0 0 0 35.133 46.893 5.94 5.94 0 0 0 28.867 46.893 4.989 4.989 0 0 0 19.133 46.893 5.94 5.94 0 0 0 12.867 46.893 5 5 0 0 0 3 48 1 1 0 0 0 5 48 3 3 0 0 1 11 48 0.97 0.97 0 0 0 11.145 48.488 5.97 5.97 0 0 0 11.695 56.17 2.5 2.5 0 0 0 10.714 56.827 2.8 2.8 0 0 0 10 58.707V61A1 1 0 0 0 12 61V58.707A0.8 0.8 0 0 1 12.194 58.173 0.5 0.5 0 0 1 12.552 58H19.452A0.5 0.5 0 0 1 19.81 58.173 0.8 0.8 0 0 1 20.004 58.707V61A1 1 0 0 0 22.004 61V58.707A2.8 2.8 0 0 0 21.29 56.827 2.5 2.5 0 0 0 20.309 56.17 5.97 5.97 0 0 0 20.859 48.488 0.97 0.97 0 0 0 21 48 3 3 0 0 1 27 48 0.97 0.97 0 0 0 27.145 48.488 5.97 5.97 0 0 0 27.695 56.17 2.5 2.5 0 0 0 26.714 56.827 2.8 2.8 0 0 0 26 58.707V61A1 1 0 0 0 28 61V58.707A0.8 0.8 0 0 1 28.194 58.173 0.5 0.5 0 0 1 28.552 58H35.452A0.5 0.5 0 0 1 35.81 58.173 0.8 0.8 0 0 1 36.004 58.707V61A1 1 0 0 0 38.004 61V58.707A2.8 2.8 0 0 0 37.29 56.827 2.5 2.5 0 0 0 36.309 56.17 5.97 5.97 0 0 0 36.859 48.488 0.97 0.97 0 0 0 37 48 3 3 0 0 1 43 48 0.97 0.97 0 0 0 43.145 48.488 5.97 5.97 0 0 0 43.695 56.17 2.5 2.5 0 0 0 42.714 56.827 2.8 2.8 0 0 0 42 58.707V61A1 1 0 0 0 44 61V58.707A0.8 0.8 0 0 1 44.194 58.173 0.5 0.5 0 0 1 44.552 58H51.452A0.5 0.5 0 0 1 51.81 58.173 0.8 0.8 0 0 1 52.004 58.707V61A1 1 0 0 0 54.004 61V58.707A2.8 2.8 0 0 0 53.29 56.827 2.5 2.5 0 0 0 52.309 56.17 5.97 5.97 0 0 0 52.859 48.488 0.97 0.97 0 0 0 53 48 3 3 0 0 1 59 48 1 1 0 0 0 61 48 5.006 5.006 0 0 0 56 43M16 48A4 4 0 1 1 12 52 4 4 0 0 1 16 48M32 48A4 4 0 1 1 28 52 4 4 0 0 1 32 48M48 48A4 4 0 1 1 44 52 4 4 0 0 1 48 48" fill="white"></path><path d="M13 41A3 3 0 0 1 19 41 1 1 0 0 0 21 41 5 5 0 0 0 11 41 1 1 0 0 0 13 41" fill="white"></path><path d="M29 41A3 3 0 0 1 35 41 1 1 0 0 0 37 41 5 5 0 0 0 27 41 1 1 0 0 0 29 41" fill="white"></path><path d="M45 41A3 3 0 0 1 51 41 1 1 0 0 0 53 41 5 5 0 0 0 43 41 1 1 0 0 0 45 41" fill="white"></path><path d="M62 3A1 1 0 0 0 61 2H3A1 1 0 0 0 3 4H4.586L7.586 7H3A1 1 0 0 0 3 9H4V12.5A3.974 3.974 0 0 0 4.1 18.032L6.05 19.982A1 1 0 0 0 7.464 19.982L11.706 15.739A1 1 0 0 0 11.706 14.325L9.756 12.376A3.92 3.92 0 0 0 6 11.327V9H31V11.417A3.85 3.85 0 0 0 29.172 12.417 4.02 4.02 0 0 0 28 15.242V18A1 1 0 0 0 29 19H35A1 1 0 0 0 36 18V15.242A4.02 4.02 0 0 0 34.828 12.414 3.85 3.85 0 0 0 33 11.414V9H58V11.327A3.92 3.92 0 0 0 54.243 12.379L52.293 14.328A1 1 0 0 0 52.293 15.742L56.535 19.985A1 1 0 0 0 57.949 19.985L59.899 18.035A3.974 3.974 0 0 0 60 12.5V9H61A1 1 0 0 0 61 7H60.345A1 1 0 0 0 60.207 6.793L57.414 4H61A1 1 0 0 0 62 3M8.343 13.793L9.586 15.035 6.758 17.864 5.515 16.621A2 2 0 1 1 8.343 13.793M34 15.242V17H30V15.242A2 2 0 0 1 34 15.242M58.485 16.621L57.242 17.864 54.414 15.035 55.657 13.793A2 2 0 1 1 58.485 16.621M25 4.414L27.586 7H22.414ZM20 6.586L17.414 4H22.586ZM27.414 4H32.586L30 6.586ZM35 4.414L37.586 7H32.414ZM40 6.586L37.414 4H42.586ZM45 4.414L47.586 7H42.414ZM12.586 4L10 6.586 7.414 4ZM15 4.414L17.586 7H12.414ZM52.414 7L55 4.414 57.586 7ZM50 6.586L47.414 4H52.586Z" fill="white"></path><path d="M61 32H3A1 1 0 0 0 3 34H61A1 1 0 0 0 61 32" fill="white"></path></g></svg></g></svg></g></svg></g></svg></g></svg></g><g></g></svg></g><defs><mask></mask></defs></svg><rect width="95.481" height="95.481" fill="black" stroke="none" visibility="hidden"></rect></g></mask><linearGradient x1="0" x2="1" y1="0.5" y2="0.5" id="ca6f19c9-7490-483f-97e5-c185afa5788e"><stop stop-color="#ffa62e" offset="0"></stop><stop stop-color="#f71b3d" offset="1"></stop></linearGradient><rect width="95.481" height="95.481" fill="url(#ca6f19c9-7490-483f-97e5-c185afa5788e)" mask="url(#09b64ea5-9584-46c8-aee5-0987116112f0)" data-fill-palette-color="accent"></rect></svg><rect width="95.481" height="95.481" fill="none" stroke="none" visibility="hidden"></rect></g></svg></g></svg>